<svg width="18" height="18" viewBox="0 0 18 18" xmlns="http://www.w3.org/2000/svg">
  <g fill="none" fill-rule="evenodd">
    <path fill="#EA4335" d="M17.64 9.2045c0-.638-.0573-1.2518-.1637-1.8384H9v3.4791h4.8436c-.2097 1.1296-.8433 2.0876-1.7963 2.7322v2.2735h2.9086c1.703-.1565 3.0092-1.5664 3.0092-3.6464z"/>
    <path fill="#34A853" d="M9 18c2.43 0 4.4689-.8065 5.9583-2.195L12.0497 13.531c-.833.5576-1.8994.8858-3.0497.8858-2.3433 0-4.3294-1.5824-5.0379-3.7098H.9393v2.3318C2.4218 16.5664 5.4803 18 9 18z"/>
    <path fill="#4A90E2" d="M3.9621 10.707C3.7882 10.1494 3.6893 9.5628 3.6893 8.955s.0989-1.1944.2728-1.752L.9393 4.8702A8.9611 8.9611 0 0 0 0 8.955c0 1.4607.3497 2.838.9393 4.0845l3.0228-2.3325z"/>
    <path fill="#FBBC05" d="M9 3.5634c1.3238 0 2.5124.4547 3.4497 1.3486l2.5851-2.585C13.4624.8522 11.4235 0 9 0 5.4803 0 2.4218 1.4336.9393 3.8705l3.0228 2.332c.7085-2.1274 2.6946-3.6391 5.0379-3.6391z"/>
  </g>
</svg>
